# xmcd
# 
# Track frame offsets:
#     150
#     19950
#     41025
#     57525
#     80025
#     118800
#     141825
#     163275
#     183225
#     196800
#     228750
#     257325
# 
# Disc length: 3683
# 
# Revision: 0
# Processed by: cddbd v1.5.2PL0 Copyright (c) Steve Scherf et al.
# Submitted via: fre:ac v1.0.17
# 
DISCID=a60e610c
DTITLE=B.B. King and Eric Clapton - Riding With The King
DYEAR=2000
DGENRE=Blues
TTITLE0=Riding With The King
TTITLE1=Ten Long Years
TTITLE2=Key to the Highway
TTITLE3=Marry You
TTITLE4=Three O'Clock Blues
TTITLE5=Help the Poor
TTITLE6=I Wanna Be
TTITLE7=Worrred Life Blues
TTITLE8=Days of Old
TTITLE9=When My Heart Beats Like a Hammer
TTITLE10=Hold On! I'm Coming
TTITLE11=Come Rain or Come Shine
EXTD=
EXTT0=
EXTT1=
EXTT2=
EXTT3=
EXTT4=
EXTT5=
EXTT6=
EXTT7=
EXTT8=
EXTT9=
EXTT10=
EXTT11=
PLAYORDER=
